<svg xmlns="http://www.w3.org/2000/svg" xmlns:xlink="http://www.w3.org/1999/xlink" viewBox="0 0 500 500" width="500"
     height="500" style="width: 100%; height: 100%; transform: translate3d(0px, 0px, 0px); content-visibility: visible;"
     preserveAspectRatio="xMidYMid meet">
    <defs>
        <clipPath id="__lottie_element_1428">
            <rect width="500" height="500" x="0" y="0"></rect>
        </clipPath>
    </defs>
    <g clip-path="url(#__lottie_element_1428)">
        <g style="display: block;"
           transform="matrix(0.7697550058364868,0,0,0.7587810158729553,144.6495819091797,83.18624877929688)"
           opacity="1">
            <g opacity="1" transform="matrix(1,0,0,1,0,0)">
                <path fill="rgb(69,129,180)" fill-opacity="1"
                      d=" M98.64399719238281,301.62298583984375 C95.5459976196289,301.62298583984375 93.0260009765625,299.10198974609375 93.0260009765625,296.0050048828125 C93.0260009765625,292.9079895019531 95.5469970703125,290.3869934082031 98.64399719238281,290.3869934082031 C101.74099731445312,290.3869934082031 104.26200103759766,292.9070129394531 104.26200103759766,296.0050048828125 C104.26200103759766,299.1029968261719 101.74099731445312,301.62298583984375 98.64399719238281,301.62298583984375 C98.64399719238281,301.62298583984375 98.64399719238281,301.62298583984375 98.64399719238281,301.62298583984375z M98.64399719238281,275.3869934082031 C87.2750015258789,275.3869934082031 78.0260009765625,284.635986328125 78.0260009765625,296.0050048828125 C78.0260009765625,307.3739929199219 87.2760009765625,316.62298583984375 98.64399719238281,316.62298583984375 C110.01200103759766,316.62298583984375 119.26200103759766,307.3739929199219 119.26200103759766,296.0050048828125 C119.26200103759766,284.635986328125 110.01200103759766,275.3869934082031 98.64399719238281,275.3869934082031 C98.64399719238281,275.3869934082031 98.64399719238281,275.3869934082031 98.64399719238281,275.3869934082031z"></path>
            </g>
            <g opacity="1" transform="matrix(1,0,0,1,0,0)">
                <path fill="rgb(69,129,180)" fill-opacity="1"
                      d=" M311.8760070800781,301.62298583984375 C308.77801513671875,301.62298583984375 306.25799560546875,299.10198974609375 306.25799560546875,296.0050048828125 C306.25799560546875,292.9079895019531 308.77899169921875,290.3869934082031 311.8760070800781,290.3869934082031 C314.9729919433594,290.3869934082031 317.4939880371094,292.9070129394531 317.4939880371094,296.0050048828125 C317.4939880371094,299.1029968261719 314.9739990234375,301.62298583984375 311.8760070800781,301.62298583984375 C311.8760070800781,301.62298583984375 311.8760070800781,301.62298583984375 311.8760070800781,301.62298583984375z M311.8760070800781,275.3869934082031 C300.5069885253906,275.3869934082031 291.25799560546875,284.635986328125 291.25799560546875,296.0050048828125 C291.25799560546875,307.3739929199219 300.50799560546875,316.62298583984375 311.8760070800781,316.62298583984375 C323.2439880371094,316.62298583984375 332.4939880371094,307.3739929199219 332.4939880371094,296.0050048828125 C332.4949951171875,284.635986328125 323.2449951171875,275.3869934082031 311.8760070800781,275.3869934082031 C311.8760070800781,275.3869934082031 311.8760070800781,275.3869934082031 311.8760070800781,275.3869934082031z"></path>
            </g>
            <g opacity="1" transform="matrix(1,0,0,1,0,0)">
                <path fill="rgb(69,129,180)" fill-opacity="1"
                      d=" M395.5199890136719,279.7560119628906 C395.5199890136719,284.58099365234375 391.5950012207031,288.5060119628906 386.7699890136719,288.5060119628906 C386.7699890136719,288.5060119628906 356.2380065917969,288.5060119628906 356.2380065917969,288.5060119628906 C355.09600830078125,281.7309875488281 352.4360046386719,275.468994140625 348.6189880371094,270.07598876953125 C348.6189880371094,270.07598876953125 386.7699890136719,270.07598876953125 386.7699890136719,270.07598876953125 C391.5950012207031,270.07598876953125 395.5199890136719,274.0060119628906 395.5199890136719,278.83599853515625 C395.5199890136719,278.83599853515625 395.5199890136719,279.7560119628906 395.5199890136719,279.7560119628906 C395.5199890136719,279.7560119628906 395.5199890136719,279.7560119628906 395.5199890136719,279.7560119628906z M311.8760070800781,326.00299072265625 C295.3349914550781,326.00299072265625 281.87799072265625,312.5450134277344 281.87799072265625,296.0039978027344 C281.87799072265625,279.4630126953125 295.3349914550781,266.0060119628906 311.8760070800781,266.0060119628906 C328.4169921875,266.0060119628906 341.8739929199219,279.4630126953125 341.8739929199219,296.0039978027344 C341.8739929199219,312.5450134277344 328.4169921875,326.00299072265625 311.8760070800781,326.00299072265625 C311.8760070800781,326.00299072265625 311.8760070800781,326.00299072265625 311.8760070800781,326.00299072265625z M267.5150146484375,288.5060119628906 C267.5150146484375,288.5060119628906 143.0050048828125,288.5060119628906 143.0050048828125,288.5060119628906 C139.42300415039062,267.25201416015625 120.9000015258789,251.00599670410156 98.64399719238281,251.00599670410156 C91.98699951171875,251.00599670410156 85.66999816894531,252.47000122070312 79.97899627685547,255.0760040283203 C79.97899627685547,255.0760040283203 24.520000457763672,255.0760040283203 24.520000457763672,255.0760040283203 C24.520000457763672,255.0760040283203 24.520000457763672,136.77000427246094 24.520000457763672,136.77000427246094 C24.520000457763672,107.95700073242188 47.96099853515625,84.51699829101562 76.77300262451172,84.51699829101562 C76.77300262451172,84.51699829101562 357.7080078125,84.51699829101562 357.7080078125,84.51699829101562 C370.71099853515625,84.51699829101562 381.68701171875,93.33799743652344 384.9830017089844,105.30899810791016 C384.9830017089844,105.30899810791016 365.4159851074219,105.30899810791016 365.4159851074219,105.30899810791016 C356.0920104980469,105.30899810791016 348.5060119628906,112.89399719238281 348.5060119628906,122.21900177001953 C348.5060119628906,122.21900177001953 348.5060119628906,180.04299926757812 348.5060119628906,180.04299926757812 C348.5060119628906,189.36700439453125 356.09100341796875,196.9530029296875 365.4159851074219,196.9530029296875 C365.4159851074219,196.9530029296875 386,196.9530029296875 386,196.9530029296875 C386,196.9530029296875 386,255.0780029296875 386,255.0780029296875 C386,255.0780029296875 330.5409851074219,255.0780029296875 330.5409851074219,255.0780029296875 C324.85101318359375,252.47300720214844 318.5329895019531,251.00799560546875 311.8760070800781,251.00799560546875 C289.6199951171875,251.0070037841797 271.09698486328125,267.25299072265625 267.5150146484375,288.5060119628906 C267.5150146484375,288.5060119628906 267.5150146484375,288.5060119628906 267.5150146484375,288.5060119628906z M98.64399719238281,326.00299072265625 C82.10299682617188,326.00299072265625 68.64600372314453,312.5450134277344 68.64600372314453,296.0039978027344 C68.64600372314453,279.4630126953125 82.10299682617188,266.0060119628906 98.64399719238281,266.0060119628906 C115.18499755859375,266.0060119628906 128.64199829101562,279.4630126953125 128.64199829101562,296.0039978027344 C128.64199829101562,312.5450134277344 115.18499755859375,326.00299072265625 98.64399719238281,326.00299072265625 C98.64399719238281,326.00299072265625 98.64399719238281,326.00299072265625 98.64399719238281,326.00299072265625z M15,279.7560119628906 C15,279.7560119628906 15,278.83599853515625 15,278.83599853515625 C15,274.0060119628906 18.924999237060547,270.07598876953125 23.75,270.07598876953125 C23.75,270.07598876953125 61.9010009765625,270.07598876953125 61.9010009765625,270.07598876953125 C58.08399963378906,275.468994140625 55.42399978637695,281.7309875488281 54.28200149536133,288.5060119628906 C54.28200149536133,288.5060119628906 23.75,288.5060119628906 23.75,288.5060119628906 C18.924999237060547,288.5060119628906 15,284.58099365234375 15,279.7560119628906 C15,279.7560119628906 15,279.7560119628906 15,279.7560119628906z M386,181.95199584960938 C386,181.95199584960938 365.4169921875,181.95199584960938 365.4169921875,181.95199584960938 C364.364013671875,181.95199584960938 363.5069885253906,181.0959930419922 363.5069885253906,180.04200744628906 C363.5069885253906,180.04200744628906 363.5069885253906,122.21800231933594 363.5069885253906,122.21800231933594 C363.5069885253906,121.16500091552734 364.3630065917969,120.30799865722656 365.4169921875,120.30799865722656 C365.4169921875,120.30799865722656 386,120.30799865722656 386,120.30799865722656 C386,120.30799865722656 386,181.95199584960938 386,181.95199584960938 C386,181.95199584960938 386,181.95199584960938 386,181.95199584960938z M401,259.82598876953125 C401,259.82598876953125 401,189.45199584960938 401,189.45199584960938 C401,189.45199584960938 401,112.80799865722656 401,112.80799865722656 C401,88.93699645996094 381.5790100097656,69.51599884033203 357.7080078125,69.51599884033203 C357.7080078125,69.51599884033203 76.77300262451172,69.51599884033203 76.77300262451172,69.51599884033203 C39.689998626708984,69.51599884033203 9.520000457763672,99.68599700927734 9.520000457763672,136.7689971923828 C9.520000457763672,136.7689971923828 9.520000457763672,259.82501220703125 9.520000457763672,259.82501220703125 C3.74399995803833,264.16400146484375 0,271.0710144042969 0,278.83599853515625 C0,278.83599853515625 0,279.7560119628906 0,279.7560119628906 C0,292.85198974609375 10.654000282287598,303.5060119628906 23.75,303.5060119628906 C23.75,303.5060119628906 54.28300094604492,303.5060119628906 54.28300094604492,303.5060119628906 C57.86600112915039,324.7590026855469 76.38800048828125,341.00299072265625 98.64399719238281,341.00299072265625 C120.9000015258789,341.00299072265625 139.4219970703125,324.7590026855469 143.0050048828125,303.5060119628906 C143.0050048828125,303.5060119628906 267.5159912109375,303.5060119628906 267.5159912109375,303.5060119628906 C271.0989990234375,324.7590026855469 289.6210021972656,341.00299072265625 311.87701416015625,341.00299072265625 C334.13299560546875,341.00299072265625 352.6549987792969,324.7590026855469 356.2380065917969,303.5060119628906 C356.2380065917969,303.5060119628906 386.77099609375,303.5060119628906 386.77099609375,303.5060119628906 C399.86700439453125,303.5060119628906 410.52099609375,292.85198974609375 410.52099609375,279.7560119628906 C410.52099609375,279.7560119628906 410.52099609375,278.83599853515625 410.52099609375,278.83599853515625 C410.5199890136719,271.0710144042969 406.7760009765625,264.16400146484375 401,259.82598876953125 C401,259.82598876953125 401,259.82598876953125 401,259.82598876953125z"></path>
            </g>
            <g opacity="1" transform="matrix(1,0,0,1,0,0)">
                <path fill="rgb(69,129,180)" fill-opacity="1"
                      d=" M311.37701416015625,180.04200744628906 C311.37701416015625,181.09500122070312 310.52099609375,181.95199584960938 309.4670104980469,181.95199584960938 C309.4670104980469,181.95199584960938 265.8280029296875,181.95199584960938 265.8280029296875,181.95199584960938 C265.8280029296875,181.95199584960938 265.8280029296875,120.30799865722656 265.8280029296875,120.30799865722656 C265.8280029296875,120.30799865722656 309.4670104980469,120.30799865722656 309.4670104980469,120.30799865722656 C310.5199890136719,120.30799865722656 311.37701416015625,121.16400146484375 311.37701416015625,122.21800231933594 C311.37701416015625,122.21800231933594 311.37701416015625,180.04200744628906 311.37701416015625,180.04200744628906 C311.37701416015625,180.04200744628906 311.37701416015625,180.04200744628906 311.37701416015625,180.04200744628906z M57.358001708984375,180.04200744628906 C57.358001708984375,180.04200744628906 57.358001708984375,141.49200439453125 57.358001708984375,141.49200439453125 C57.358001708984375,129.81100463867188 66.86100006103516,120.30799865722656 78.54199981689453,120.30799865722656 C78.54199981689453,120.30799865722656 102.90799713134766,120.30799865722656 102.90799713134766,120.30799865722656 C102.90799713134766,120.30799865722656 102.90799713134766,181.95199584960938 102.90799713134766,181.95199584960938 C102.90799713134766,181.95199584960938 59.268001556396484,181.95199584960938 59.268001556396484,181.95199584960938 C58.2140007019043,181.95199584960938 57.358001708984375,181.09500122070312 57.358001708984375,180.04200744628906 C57.358001708984375,180.04200744628906 57.358001708984375,180.04200744628906 57.358001708984375,180.04200744628906z M176.8679962158203,181.95199584960938 C176.8679962158203,181.95199584960938 117.90799713134766,181.95199584960938 117.90799713134766,181.95199584960938 C117.90799713134766,181.95199584960938 117.90799713134766,120.30799865722656 117.90799713134766,120.30799865722656 C117.90799713134766,120.30799865722656 176.8679962158203,120.30799865722656 176.8679962158203,120.30799865722656 C176.8679962158203,120.30799865722656 176.8679962158203,181.95199584960938 176.8679962158203,181.95199584960938 C176.8679962158203,181.95199584960938 176.8679962158203,181.95199584960938 176.8679962158203,181.95199584960938z M191.8679962158203,120.30799865722656 C191.8679962158203,120.30799865722656 250.82899475097656,120.30799865722656 250.82899475097656,120.30799865722656 C250.82899475097656,120.30799865722656 250.82899475097656,181.95199584960938 250.82899475097656,181.95199584960938 C250.82899475097656,181.95199584960938 191.8679962158203,181.95199584960938 191.8679962158203,181.95199584960938 C191.8679962158203,181.95199584960938 191.8679962158203,120.30799865722656 191.8679962158203,120.30799865722656 C191.8679962158203,120.30799865722656 191.8679962158203,120.30799865722656 191.8679962158203,120.30799865722656z M326.37701416015625,180.04200744628906 C326.37701416015625,180.04200744628906 326.37701416015625,122.21800231933594 326.37701416015625,122.21800231933594 C326.37701416015625,112.89399719238281 318.7919921875,105.30799865722656 309.4670104980469,105.30799865722656 C309.4670104980469,105.30799865722656 78.54199981689453,105.30799865722656 78.54199981689453,105.30799865722656 C58.59000015258789,105.30799865722656 42.358001708984375,121.54000091552734 42.358001708984375,141.49200439453125 C42.358001708984375,141.49200439453125 42.358001708984375,180.04200744628906 42.358001708984375,180.04200744628906 C42.358001708984375,189.36599731445312 49.94300079345703,196.95199584960938 59.268001556396484,196.95199584960938 C59.268001556396484,196.95199584960938 309.4679870605469,196.95199584960938 309.4679870605469,196.95199584960938 C318.7919921875,196.95199584960938 326.37701416015625,189.36599731445312 326.37701416015625,180.04200744628906 C326.37701416015625,180.04200744628906 326.37701416015625,180.04200744628906 326.37701416015625,180.04200744628906z"></path>
            </g>
            <g opacity="1" transform="matrix(1,0,0,1,0,0)">
                <path fill="rgb(69,129,180)" fill-opacity="1"
                      d=" M369.5369873046875,243.41299438476562 C373.6789855957031,243.41299438476562 377.0369873046875,240.05499267578125 377.0369873046875,235.91299438476562 C377.0369873046875,235.91299438476562 377.0369873046875,229.24600219726562 377.0369873046875,229.24600219726562 C377.0369873046875,225.10400390625 373.6789855957031,221.74600219726562 369.5369873046875,221.74600219726562 C365.3949890136719,221.74600219726562 362.0369873046875,225.10400390625 362.0369873046875,229.24600219726562 C362.0369873046875,229.24600219726562 362.0369873046875,235.91299438476562 362.0369873046875,235.91299438476562 C362.0369873046875,240.05499267578125 365.3949890136719,243.41299438476562 369.5369873046875,243.41299438476562 C369.5369873046875,243.41299438476562 369.5369873046875,243.41299438476562 369.5369873046875,243.41299438476562z"></path>
            </g>
        </g>
        <g style="display: block;"
           transform="matrix(0.6702839732170105,0,0,0.6702839732170105,43.90629959106445,313.2869873046875)"
           opacity="1">
            <path stroke-linecap="round" stroke-linejoin="round" fill-opacity="0" stroke="rgb(69,129,180)"
                  stroke-opacity="1" stroke-width="8"
                  d=" M0,-11 C7.174699783325195,-11 13,-6.070899963378906 13,0 C13,6.070899963378906 7.174699783325195,11 0,11 C-7.174699783325195,11 -13,6.070899963378906 -13,0 C-13,-6.070899963378906 -7.174699783325195,-11 0,-11z"></path>
            <path fill-rule="evenodd" fill="rgb(14,13,13)" fill-opacity="0"
                  d=" M0,-11 C7.174699783325195,-11 13,-6.070899963378906 13,0 C13,6.070899963378906 7.174699783325195,11 0,11 C-7.174699783325195,11 -13,6.070899963378906 -13,0 C-13,-6.070899963378906 -7.174699783325195,-11 0,-11z"></path>
        </g>
        <g style="display: block;"
           transform="matrix(1.1497160196304321,0,0,1.1497160196304321,108.86100006103516,286.8518981933594)"
           opacity="1">
            <path stroke-linecap="round" stroke-linejoin="round" fill-opacity="0" stroke="rgb(69,129,180)"
                  stroke-opacity="1" stroke-width="8"
                  d=" M0,-11 C7.174699783325195,-11 13,-6.070899963378906 13,0 C13,6.070899963378906 7.174699783325195,11 0,11 C-7.174699783325195,11 -13,6.070899963378906 -13,0 C-13,-6.070899963378906 -7.174699783325195,-11 0,-11z"></path>
            <path fill-rule="evenodd" fill="rgb(14,13,13)" fill-opacity="0"
                  d=" M0,-11 C7.174699783325195,-11 13,-6.070899963378906 13,0 C13,6.070899963378906 7.174699783325195,11 0,11 C-7.174699783325195,11 -13,6.070899963378906 -13,0 C-13,-6.070899963378906 -7.174699783325195,-11 0,-11z"></path>
        </g>
    </g>
</svg>